<?xml version="1.0" encoding="utf-8" standalone="no"?>
<!DOCTYPE svg PUBLIC "-//W3C//DTD SVG 1.1//EN"
  "http://www.w3.org/Graphics/SVG/1.1/DTD/svg11.dtd">
<svg xmlns:xlink="http://www.w3.org/1999/xlink" width="576pt" height="432pt" viewBox="0 0 576 432" xmlns="http://www.w3.org/2000/svg" version="1.1">
 <metadata>
  <rdf:RDF xmlns:dc="http://purl.org/dc/elements/1.1/" xmlns:cc="http://creativecommons.org/ns#" xmlns:rdf="http://www.w3.org/1999/02/22-rdf-syntax-ns#">
   <cc:Work>
    <dc:type rdf:resource="http://purl.org/dc/dcmitype/StillImage"/>
    <dc:date>2023-05-22T21:31:22.447040</dc:date>
    <dc:format>image/svg+xml</dc:format>
    <dc:creator>
     <cc:Agent>
      <dc:title>Matplotlib v3.7.1, https://matplotlib.org/</dc:title>
     </cc:Agent>
    </dc:creator>
   </cc:Work>
  </rdf:RDF>
 </metadata>
 <defs>
  <style type="text/css">*{stroke-linejoin: round; stroke-linecap: butt}</style>
 </defs>
 <g id="figure_1">
  <g id="patch_1">
   <path d="M 0 432 
L 576 432 
L 576 0 
L 0 0 
z
" style="fill: #ffffff"/>
  </g>
  <g id="axes_1">
   <g id="patch_2">
    <path d="M 72 384.48 
L 518.4 384.48 
L 518.4 51.84 
L 72 51.84 
z
" style="fill: #ffffff"/>
   </g>
   <g id="matplotlib.axis_1">
    <g id="xtick_1">
     <g id="line2d_1">
      <path d="M 92.290909 384.48 
L 92.290909 51.84 
" clip-path="url(#p8fe7c977de)" style="fill: none; stroke: #b0b0b0; stroke-opacity: 0.6; stroke-width: 0.8; stroke-linecap: square"/>
     </g>
     <g id="line2d_2">
      <defs>
       <path id="m7ec1d0f02a" d="M 0 0 
L 0 3.5 
" style="stroke: #000000; stroke-width: 0.8"/>
      </defs>
      <g>
       <use xlink:href="#m7ec1d0f02a" x="92.290909" y="384.48" style="stroke: #000000; stroke-width: 0.8"/>
      </g>
     </g>
     <g id="text_1">
      <!-- 2011 -->
      <g transform="translate(79.565909 399.078438) scale(0.1 -0.1)">
       <defs>
        <path id="DejaVuSans-32" d="M 1228 531 
L 3431 531 
L 3431 0 
L 469 0 
L 469 531 
Q 828 903 1448 1529 
Q 2069 2156 2228 2338 
Q 2531 2678 2651 2914 
Q 2772 3150 2772 3378 
Q 2772 3750 2511 3984 
Q 2250 4219 1831 4219 
Q 1534 4219 1204 4116 
Q 875 4013 500 3803 
L 500 4441 
Q 881 4594 1212 4672 
Q 1544 4750 1819 4750 
Q 2544 4750 2975 4387 
Q 3406 4025 3406 3419 
Q 3406 3131 3298 2873 
Q 3191 2616 2906 2266 
Q 2828 2175 2409 1742 
Q 1991 1309 1228 531 
z
" transform="scale(0.015625)"/>
        <path id="DejaVuSans-30" d="M 2034 4250 
Q 1547 4250 1301 3770 
Q 1056 3291 1056 2328 
Q 1056 1369 1301 889 
Q 1547 409 2034 409 
Q 2525 409 2770 889 
Q 3016 1369 3016 2328 
Q 3016 3291 2770 3770 
Q 2525 4250 2034 4250 
z
M 2034 4750 
Q 2819 4750 3233 4129 
Q 3647 3509 3647 2328 
Q 3647 1150 3233 529 
Q 2819 -91 2034 -91 
Q 1250 -91 836 529 
Q 422 1150 422 2328 
Q 422 3509 836 4129 
Q 1250 4750 2034 4750 
z
" transform="scale(0.015625)"/>
        <path id="DejaVuSans-31" d="M 794 531 
L 1825 531 
L 1825 4091 
L 703 3866 
L 703 4441 
L 1819 4666 
L 2450 4666 
L 2450 531 
L 3481 531 
L 3481 0 
L 794 0 
L 794 531 
z
" transform="scale(0.015625)"/>
       </defs>
       <use xlink:href="#DejaVuSans-32"/>
       <use xlink:href="#DejaVuSans-30" x="63.623047"/>
       <use xlink:href="#DejaVuSans-31" x="127.246094"/>
       <use xlink:href="#DejaVuSans-31" x="190.869141"/>
      </g>
     </g>
    </g>
    <g id="xtick_2">
     <g id="line2d_3">
      <path d="M 98.172332 384.48 
L 98.172332 51.84 
" clip-path="url(#p8fe7c977de)" style="fill: none; stroke: #b0b0b0; stroke-opacity: 0.6; stroke-width: 0.8; stroke-linecap: square"/>
     </g>
     <g id="line2d_4">
      <g>
       <use xlink:href="#m7ec1d0f02a" x="98.172332" y="384.48" style="stroke: #000000; stroke-width: 0.8"/>
      </g>
     </g>
     <g id="text_2">
      <!-- 2012 -->
      <g transform="translate(85.447332 399.078438) scale(0.1 -0.1)">
       <use xlink:href="#DejaVuSans-32"/>
       <use xlink:href="#DejaVuSans-30" x="63.623047"/>
       <use xlink:href="#DejaVuSans-31" x="127.246094"/>
       <use xlink:href="#DejaVuSans-32" x="190.869141"/>
      </g>
     </g>
    </g>
    <g id="xtick_3">
     <g id="line2d_5">
      <path d="M 115.816601 384.48 
L 115.816601 51.84 
" clip-path="url(#p8fe7c977de)" style="fill: none; stroke: #b0b0b0; stroke-opacity: 0.6; stroke-width: 0.8; stroke-linecap: square"/>
     </g>
     <g id="line2d_6">
      <g>
       <use xlink:href="#m7ec1d0f02a" x="115.816601" y="384.48" style="stroke: #000000; stroke-width: 0.8"/>
      </g>
     </g>
     <g id="text_3">
      <!-- 2013 -->
      <g transform="translate(103.091601 399.078438) scale(0.1 -0.1)">
       <defs>
        <path id="DejaVuSans-33" d="M 2597 2516 
Q 3050 2419 3304 2112 
Q 3559 1806 3559 1356 
Q 3559 666 3084 287 
Q 2609 -91 1734 -91 
Q 1441 -91 1130 -33 
Q 819 25 488 141 
L 488 750 
Q 750 597 1062 519 
Q 1375 441 1716 441 
Q 2309 441 2620 675 
Q 2931 909 2931 1356 
Q 2931 1769 2642 2001 
Q 2353 2234 1838 2234 
L 1294 2234 
L 1294 2753 
L 1863 2753 
Q 2328 2753 2575 2939 
Q 2822 3125 2822 3475 
Q 2822 3834 2567 4026 
Q 2313 4219 1838 4219 
Q 1578 4219 1281 4162 
Q 984 4106 628 3988 
L 628 4550 
Q 988 4650 1302 4700 
Q 1616 4750 1894 4750 
Q 2613 4750 3031 4423 
Q 3450 4097 3450 3541 
Q 3450 3153 3228 2886 
Q 3006 2619 2597 2516 
z
" transform="scale(0.015625)"/>
       </defs>
       <use xlink:href="#DejaVuSans-32"/>
       <use xlink:href="#DejaVuSans-30" x="63.623047"/>
       <use xlink:href="#DejaVuSans-31" x="127.246094"/>
       <use xlink:href="#DejaVuSans-33" x="190.869141"/>
      </g>
     </g>
    </g>
    <g id="xtick_4">
     <g id="line2d_7">
      <path d="M 142.283004 384.48 
L 142.283004 51.84 
" clip-path="url(#p8fe7c977de)" style="fill: none; stroke: #b0b0b0; stroke-opacity: 0.6; stroke-width: 0.8; stroke-linecap: square"/>
     </g>
     <g id="line2d_8">
      <g>
       <use xlink:href="#m7ec1d0f02a" x="142.283004" y="384.48" style="stroke: #000000; stroke-width: 0.8"/>
      </g>
     </g>
     <g id="text_4">
      <!-- 2014 -->
      <g transform="translate(129.558004 399.078438) scale(0.1 -0.1)">
       <defs>
        <path id="DejaVuSans-34" d="M 2419 4116 
L 825 1625 
L 2419 1625 
L 2419 4116 
z
M 2253 4666 
L 3047 4666 
L 3047 1625 
L 3713 1625 
L 3713 1100 
L 3047 1100 
L 3047 0 
L 2419 0 
L 2419 1100 
L 313 1100 
L 313 1709 
L 2253 4666 
z
" transform="scale(0.015625)"/>
       </defs>
       <use xlink:href="#DejaVuSans-32"/>
       <use xlink:href="#DejaVuSans-30" x="63.623047"/>
       <use xlink:href="#DejaVuSans-31" x="127.246094"/>
       <use xlink:href="#DejaVuSans-34" x="190.869141"/>
      </g>
     </g>
    </g>
    <g id="xtick_5">
     <g id="line2d_9">
      <path d="M 165.808696 384.48 
L 165.808696 51.84 
" clip-path="url(#p8fe7c977de)" style="fill: none; stroke: #b0b0b0; stroke-opacity: 0.6; stroke-width: 0.8; stroke-linecap: square"/>
     </g>
     <g id="line2d_10">
      <g>
       <use xlink:href="#m7ec1d0f02a" x="165.808696" y="384.48" style="stroke: #000000; stroke-width: 0.8"/>
      </g>
     </g>
     <g id="text_5">
      <!-- 2015 -->
      <g transform="translate(153.083696 399.078438) scale(0.1 -0.1)">
       <defs>
        <path id="DejaVuSans-35" d="M 691 4666 
L 3169 4666 
L 3169 4134 
L 1269 4134 
L 1269 2991 
Q 1406 3038 1543 3061 
Q 1681 3084 1819 3084 
Q 2600 3084 3056 2656 
Q 3513 2228 3513 1497 
Q 3513 744 3044 326 
Q 2575 -91 1722 -91 
Q 1428 -91 1123 -41 
Q 819 9 494 109 
L 494 744 
Q 775 591 1075 516 
Q 1375 441 1709 441 
Q 2250 441 2565 725 
Q 2881 1009 2881 1497 
Q 2881 1984 2565 2268 
Q 2250 2553 1709 2553 
Q 1456 2553 1204 2497 
Q 953 2441 691 2322 
L 691 4666 
z
" transform="scale(0.015625)"/>
       </defs>
       <use xlink:href="#DejaVuSans-32"/>
       <use xlink:href="#DejaVuSans-30" x="63.623047"/>
       <use xlink:href="#DejaVuSans-31" x="127.246094"/>
       <use xlink:href="#DejaVuSans-35" x="190.869141"/>
      </g>
     </g>
    </g>
    <g id="xtick_6">
     <g id="line2d_11">
      <path d="M 192.275099 384.48 
L 192.275099 51.84 
" clip-path="url(#p8fe7c977de)" style="fill: none; stroke: #b0b0b0; stroke-opacity: 0.6; stroke-width: 0.8; stroke-linecap: square"/>
     </g>
     <g id="line2d_12">
      <g>
       <use xlink:href="#m7ec1d0f02a" x="192.275099" y="384.48" style="stroke: #000000; stroke-width: 0.8"/>
      </g>
     </g>
     <g id="text_6">
      <!-- 2016 -->
      <g transform="translate(179.550099 399.078438) scale(0.1 -0.1)">
       <defs>
        <path id="DejaVuSans-36" d="M 2113 2584 
Q 1688 2584 1439 2293 
Q 1191 2003 1191 1497 
Q 1191 994 1439 701 
Q 1688 409 2113 409 
Q 2538 409 2786 701 
Q 3034 994 3034 1497 
Q 3034 2003 2786 2293 
Q 2538 2584 2113 2584 
z
M 3366 4563 
L 3366 3988 
Q 3128 4100 2886 4159 
Q 2644 4219 2406 4219 
Q 1781 4219 1451 3797 
Q 1122 3375 1075 2522 
Q 1259 2794 1537 2939 
Q 1816 3084 2150 3084 
Q 2853 3084 3261 2657 
Q 3669 2231 3669 1497 
Q 3669 778 3244 343 
Q 2819 -91 2113 -91 
Q 1303 -91 875 529 
Q 447 1150 447 2328 
Q 447 3434 972 4092 
Q 1497 4750 2381 4750 
Q 2619 4750 2861 4703 
Q 3103 4656 3366 4563 
z
" transform="scale(0.015625)"/>
       </defs>
       <use xlink:href="#DejaVuSans-32"/>
       <use xlink:href="#DejaVuSans-30" x="63.623047"/>
       <use xlink:href="#DejaVuSans-31" x="127.246094"/>
       <use xlink:href="#DejaVuSans-36" x="190.869141"/>
      </g>
     </g>
    </g>
    <g id="xtick_7">
     <g id="line2d_13">
      <path d="M 227.563636 384.48 
L 227.563636 51.84 
" clip-path="url(#p8fe7c977de)" style="fill: none; stroke: #b0b0b0; stroke-opacity: 0.6; stroke-width: 0.8; stroke-linecap: square"/>
     </g>
     <g id="line2d_14">
      <g>
       <use xlink:href="#m7ec1d0f02a" x="227.563636" y="384.48" style="stroke: #000000; stroke-width: 0.8"/>
      </g>
     </g>
     <g id="text_7">
      <!-- 2017 -->
      <g transform="translate(214.838636 399.078438) scale(0.1 -0.1)">
       <defs>
        <path id="DejaVuSans-37" d="M 525 4666 
L 3525 4666 
L 3525 4397 
L 1831 0 
L 1172 0 
L 2766 4134 
L 525 4134 
L 525 4666 
z
" transform="scale(0.015625)"/>
       </defs>
       <use xlink:href="#DejaVuSans-32"/>
       <use xlink:href="#DejaVuSans-30" x="63.623047"/>
       <use xlink:href="#DejaVuSans-31" x="127.246094"/>
       <use xlink:href="#DejaVuSans-37" x="190.869141"/>
      </g>
     </g>
    </g>
    <g id="xtick_8">
     <g id="line2d_15">
      <path d="M 262.852174 384.48 
L 262.852174 51.84 
" clip-path="url(#p8fe7c977de)" style="fill: none; stroke: #b0b0b0; stroke-opacity: 0.6; stroke-width: 0.8; stroke-linecap: square"/>
     </g>
     <g id="line2d_16">
      <g>
       <use xlink:href="#m7ec1d0f02a" x="262.852174" y="384.48" style="stroke: #000000; stroke-width: 0.8"/>
      </g>
     </g>
     <g id="text_8">
      <!-- 2018 -->
      <g transform="translate(250.127174 399.078438) scale(0.1 -0.1)">
       <defs>
        <path id="DejaVuSans-38" d="M 2034 2216 
Q 1584 2216 1326 1975 
Q 1069 1734 1069 1313 
Q 1069 891 1326 650 
Q 1584 409 2034 409 
Q 2484 409 2743 651 
Q 3003 894 3003 1313 
Q 3003 1734 2745 1975 
Q 2488 2216 2034 2216 
z
M 1403 2484 
Q 997 2584 770 2862 
Q 544 3141 544 3541 
Q 544 4100 942 4425 
Q 1341 4750 2034 4750 
Q 2731 4750 3128 4425 
Q 3525 4100 3525 3541 
Q 3525 3141 3298 2862 
Q 3072 2584 2669 2484 
Q 3125 2378 3379 2068 
Q 3634 1759 3634 1313 
Q 3634 634 3220 271 
Q 2806 -91 2034 -91 
Q 1263 -91 848 271 
Q 434 634 434 1313 
Q 434 1759 690 2068 
Q 947 2378 1403 2484 
z
M 1172 3481 
Q 1172 3119 1398 2916 
Q 1625 2713 2034 2713 
Q 2441 2713 2670 2916 
Q 2900 3119 2900 3481 
Q 2900 3844 2670 4047 
Q 2441 4250 2034 4250 
Q 1625 4250 1398 4047 
Q 1172 3844 1172 3481 
z
" transform="scale(0.015625)"/>
       </defs>
       <use xlink:href="#DejaVuSans-32"/>
       <use xlink:href="#DejaVuSans-30" x="63.623047"/>
       <use xlink:href="#DejaVuSans-31" x="127.246094"/>
       <use xlink:href="#DejaVuSans-38" x="190.869141"/>
      </g>
     </g>
    </g>
    <g id="xtick_9">
     <g id="line2d_17">
      <path d="M 298.140711 384.48 
L 298.140711 51.84 
" clip-path="url(#p8fe7c977de)" style="fill: none; stroke: #b0b0b0; stroke-opacity: 0.6; stroke-width: 0.8; stroke-linecap: square"/>
     </g>
     <g id="line2d_18">
      <g>
       <use xlink:href="#m7ec1d0f02a" x="298.140711" y="384.48" style="stroke: #000000; stroke-width: 0.8"/>
      </g>
     </g>
     <g id="text_9">
      <!-- 2019 -->
      <g transform="translate(285.415711 399.078438) scale(0.1 -0.1)">
       <defs>
        <path id="DejaVuSans-39" d="M 703 97 
L 703 672 
Q 941 559 1184 500 
Q 1428 441 1663 441 
Q 2288 441 2617 861 
Q 2947 1281 2994 2138 
Q 2813 1869 2534 1725 
Q 2256 1581 1919 1581 
Q 1219 1581 811 2004 
Q 403 2428 403 3163 
Q 403 3881 828 4315 
Q 1253 4750 1959 4750 
Q 2769 4750 3195 4129 
Q 3622 3509 3622 2328 
Q 3622 1225 3098 567 
Q 2575 -91 1691 -91 
Q 1453 -91 1209 -44 
Q 966 3 703 97 
z
M 1959 2075 
Q 2384 2075 2632 2365 
Q 2881 2656 2881 3163 
Q 2881 3666 2632 3958 
Q 2384 4250 1959 4250 
Q 1534 4250 1286 3958 
Q 1038 3666 1038 3163 
Q 1038 2656 1286 2365 
Q 1534 2075 1959 2075 
z
" transform="scale(0.015625)"/>
       </defs>
       <use xlink:href="#DejaVuSans-32"/>
       <use xlink:href="#DejaVuSans-30" x="63.623047"/>
       <use xlink:href="#DejaVuSans-31" x="127.246094"/>
       <use xlink:href="#DejaVuSans-39" x="190.869141"/>
      </g>
     </g>
    </g>
    <g id="xtick_10">
     <g id="line2d_19">
      <path d="M 333.429249 384.48 
L 333.429249 51.84 
" clip-path="url(#p8fe7c977de)" style="fill: none; stroke: #b0b0b0; stroke-opacity: 0.6; stroke-width: 0.8; stroke-linecap: square"/>
     </g>
     <g id="line2d_20">
      <g>
       <use xlink:href="#m7ec1d0f02a" x="333.429249" y="384.48" style="stroke: #000000; stroke-width: 0.8"/>
      </g>
     </g>
     <g id="text_10">
      <!-- 2020 -->
      <g transform="translate(320.704249 399.078438) scale(0.1 -0.1)">
       <use xlink:href="#DejaVuSans-32"/>
       <use xlink:href="#DejaVuSans-30" x="63.623047"/>
       <use xlink:href="#DejaVuSans-32" x="127.246094"/>
       <use xlink:href="#DejaVuSans-30" x="190.869141"/>
      </g>
     </g>
    </g>
    <g id="xtick_11">
     <g id="line2d_21">
      <path d="M 368.717787 384.48 
L 368.717787 51.84 
" clip-path="url(#p8fe7c977de)" style="fill: none; stroke: #b0b0b0; stroke-opacity: 0.6; stroke-width: 0.8; stroke-linecap: square"/>
     </g>
     <g id="line2d_22">
      <g>
       <use xlink:href="#m7ec1d0f02a" x="368.717787" y="384.48" style="stroke: #000000; stroke-width: 0.8"/>
      </g>
     </g>
     <g id="text_11">
      <!-- 2021 -->
      <g transform="translate(355.992787 399.078438) scale(0.1 -0.1)">
       <use xlink:href="#DejaVuSans-32"/>
       <use xlink:href="#DejaVuSans-30" x="63.623047"/>
       <use xlink:href="#DejaVuSans-32" x="127.246094"/>
       <use xlink:href="#DejaVuSans-31" x="190.869141"/>
      </g>
     </g>
    </g>
    <g id="xtick_12">
     <g id="line2d_23">
      <path d="M 404.006324 384.48 
L 404.006324 51.84 
" clip-path="url(#p8fe7c977de)" style="fill: none; stroke: #b0b0b0; stroke-opacity: 0.6; stroke-width: 0.8; stroke-linecap: square"/>
     </g>
     <g id="line2d_24">
      <g>
       <use xlink:href="#m7ec1d0f02a" x="404.006324" y="384.48" style="stroke: #000000; stroke-width: 0.8"/>
      </g>
     </g>
     <g id="text_12">
      <!-- 2022 -->
      <g transform="translate(391.281324 399.078438) scale(0.1 -0.1)">
       <use xlink:href="#DejaVuSans-32"/>
       <use xlink:href="#DejaVuSans-30" x="63.623047"/>
       <use xlink:href="#DejaVuSans-32" x="127.246094"/>
       <use xlink:href="#DejaVuSans-32" x="190.869141"/>
      </g>
     </g>
    </g>
    <g id="text_13">
     <!-- date -->
     <g transform="translate(283.925 412.756563) scale(0.1 -0.1)">
      <defs>
       <path id="DejaVuSans-64" d="M 2906 2969 
L 2906 4863 
L 3481 4863 
L 3481 0 
L 2906 0 
L 2906 525 
Q 2725 213 2448 61 
Q 2172 -91 1784 -91 
Q 1150 -91 751 415 
Q 353 922 353 1747 
Q 353 2572 751 3078 
Q 1150 3584 1784 3584 
Q 2172 3584 2448 3432 
Q 2725 3281 2906 2969 
z
M 947 1747 
Q 947 1113 1208 752 
Q 1469 391 1925 391 
Q 2381 391 2643 752 
Q 2906 1113 2906 1747 
Q 2906 2381 2643 2742 
Q 2381 3103 1925 3103 
Q 1469 3103 1208 2742 
Q 947 2381 947 1747 
z
" transform="scale(0.015625)"/>
       <path id="DejaVuSans-61" d="M 2194 1759 
Q 1497 1759 1228 1600 
Q 959 1441 959 1056 
Q 959 750 1161 570 
Q 1363 391 1709 391 
Q 2188 391 2477 730 
Q 2766 1069 2766 1631 
L 2766 1759 
L 2194 1759 
z
M 3341 1997 
L 3341 0 
L 2766 0 
L 2766 531 
Q 2569 213 2275 61 
Q 1981 -91 1556 -91 
Q 1019 -91 701 211 
Q 384 513 384 1019 
Q 384 1609 779 1909 
Q 1175 2209 1959 2209 
L 2766 2209 
L 2766 2266 
Q 2766 2663 2505 2880 
Q 2244 3097 1772 3097 
Q 1472 3097 1187 3025 
Q 903 2953 641 2809 
L 641 3341 
Q 956 3463 1253 3523 
Q 1550 3584 1831 3584 
Q 2591 3584 2966 3190 
Q 3341 2797 3341 1997 
z
" transform="scale(0.015625)"/>
       <path id="DejaVuSans-74" d="M 1172 4494 
L 1172 3500 
L 2356 3500 
L 2356 3053 
L 1172 3053 
L 1172 1153 
Q 1172 725 1289 603 
Q 1406 481 1766 481 
L 2356 481 
L 2356 0 
L 1766 0 
Q 1100 0 847 248 
Q 594 497 594 1153 
L 594 3053 
L 172 3053 
L 172 3500 
L 594 3500 
L 594 4494 
L 1172 4494 
z
" transform="scale(0.015625)"/>
       <path id="DejaVuSans-65" d="M 3597 1894 
L 3597 1613 
L 953 1613 
Q 991 1019 1311 708 
Q 1631 397 2203 397 
Q 2534 397 2845 478 
Q 3156 559 3463 722 
L 3463 178 
Q 3153 47 2828 -22 
Q 2503 -91 2169 -91 
Q 1331 -91 842 396 
Q 353 884 353 1716 
Q 353 2575 817 3079 
Q 1281 3584 2069 3584 
Q 2775 3584 3186 3129 
Q 3597 2675 3597 1894 
z
M 3022 2063 
Q 3016 2534 2758 2815 
Q 2500 3097 2075 3097 
Q 1594 3097 1305 2825 
Q 1016 2553 972 2059 
L 3022 2063 
z
" transform="scale(0.015625)"/>
      </defs>
      <use xlink:href="#DejaVuSans-64"/>
      <use xlink:href="#DejaVuSans-61" x="63.476562"/>
      <use xlink:href="#DejaVuSans-74" x="124.755859"/>
      <use xlink:href="#DejaVuSans-65" x="163.964844"/>
     </g>
    </g>
   </g>
   <g id="matplotlib.axis_2">
    <g id="ytick_1">
     <g id="line2d_25">
      <path d="M 72 369.36 
L 518.4 369.36 
" clip-path="url(#p8fe7c977de)" style="fill: none; stroke: #b0b0b0; stroke-opacity: 0.6; stroke-width: 0.8; stroke-linecap: square"/>
     </g>
     <g id="line2d_26">
      <defs>
       <path id="m3e8fcc8610" d="M 0 0 
L -3.5 0 
" style="stroke: #000000; stroke-width: 0.8"/>
      </defs>
      <g>
       <use xlink:href="#m3e8fcc8610" x="72" y="369.36" style="stroke: #000000; stroke-width: 0.8"/>
      </g>
     </g>
     <g id="text_14">
      <!-- 0 -->
      <g transform="translate(58.6375 373.159219) scale(0.1 -0.1)">
       <use xlink:href="#DejaVuSans-30"/>
      </g>
     </g>
    </g>
    <g id="ytick_2">
     <g id="line2d_27">
      <path d="M 72 307.112161 
L 518.4 307.112161 
" clip-path="url(#p8fe7c977de)" style="fill: none; stroke: #b0b0b0; stroke-opacity: 0.6; stroke-width: 0.8; stroke-linecap: square"/>
     </g>
     <g id="line2d_28">
      <g>
       <use xlink:href="#m3e8fcc8610" x="72" y="307.112161" style="stroke: #000000; stroke-width: 0.8"/>
      </g>
     </g>
     <g id="text_15">
      <!-- 500 -->
      <g transform="translate(45.9125 310.91138) scale(0.1 -0.1)">
       <use xlink:href="#DejaVuSans-35"/>
       <use xlink:href="#DejaVuSans-30" x="63.623047"/>
       <use xlink:href="#DejaVuSans-30" x="127.246094"/>
      </g>
     </g>
    </g>
    <g id="ytick_3">
     <g id="line2d_29">
      <path d="M 72 244.864323 
L 518.4 244.864323 
" clip-path="url(#p8fe7c977de)" style="fill: none; stroke: #b0b0b0; stroke-opacity: 0.6; stroke-width: 0.8; stroke-linecap: square"/>
     </g>
     <g id="line2d_30">
      <g>
       <use xlink:href="#m3e8fcc8610" x="72" y="244.864323" style="stroke: #000000; stroke-width: 0.8"/>
      </g>
     </g>
     <g id="text_16">
      <!-- 1000 -->
      <g transform="translate(39.55 248.663542) scale(0.1 -0.1)">
       <use xlink:href="#DejaVuSans-31"/>
       <use xlink:href="#DejaVuSans-30" x="63.623047"/>
       <use xlink:href="#DejaVuSans-30" x="127.246094"/>
       <use xlink:href="#DejaVuSans-30" x="190.869141"/>
      </g>
     </g>
    </g>
    <g id="ytick_4">
     <g id="line2d_31">
      <path d="M 72 182.616484 
L 518.4 182.616484 
" clip-path="url(#p8fe7c977de)" style="fill: none; stroke: #b0b0b0; stroke-opacity: 0.6; stroke-width: 0.8; stroke-linecap: square"/>
     </g>
     <g id="line2d_32">
      <g>
       <use xlink:href="#m3e8fcc8610" x="72" y="182.616484" style="stroke: #000000; stroke-width: 0.8"/>
      </g>
     </g>
     <g id="text_17">
      <!-- 1500 -->
      <g transform="translate(39.55 186.415703) scale(0.1 -0.1)">
       <use xlink:href="#DejaVuSans-31"/>
       <use xlink:href="#DejaVuSans-35" x="63.623047"/>
       <use xlink:href="#DejaVuSans-30" x="127.246094"/>
       <use xlink:href="#DejaVuSans-30" x="190.869141"/>
      </g>
     </g>
    </g>
    <g id="ytick_5">
     <g id="line2d_33">
      <path d="M 72 120.368646 
L 518.4 120.368646 
" clip-path="url(#p8fe7c977de)" style="fill: none; stroke: #b0b0b0; stroke-opacity: 0.6; stroke-width: 0.8; stroke-linecap: square"/>
     </g>
     <g id="line2d_34">
      <g>
       <use xlink:href="#m3e8fcc8610" x="72" y="120.368646" style="stroke: #000000; stroke-width: 0.8"/>
      </g>
     </g>
     <g id="text_18">
      <!-- 2000 -->
      <g transform="translate(39.55 124.167864) scale(0.1 -0.1)">
       <use xlink:href="#DejaVuSans-32"/>
       <use xlink:href="#DejaVuSans-30" x="63.623047"/>
       <use xlink:href="#DejaVuSans-30" x="127.246094"/>
       <use xlink:href="#DejaVuSans-30" x="190.869141"/>
      </g>
     </g>
    </g>
    <g id="ytick_6">
     <g id="line2d_35">
      <path d="M 72 58.120807 
L 518.4 58.120807 
" clip-path="url(#p8fe7c977de)" style="fill: none; stroke: #b0b0b0; stroke-opacity: 0.6; stroke-width: 0.8; stroke-linecap: square"/>
     </g>
     <g id="line2d_36">
      <g>
       <use xlink:href="#m3e8fcc8610" x="72" y="58.120807" style="stroke: #000000; stroke-width: 0.8"/>
      </g>
     </g>
     <g id="text_19">
      <!-- 2500 -->
      <g transform="translate(39.55 61.920026) scale(0.1 -0.1)">
       <use xlink:href="#DejaVuSans-32"/>
       <use xlink:href="#DejaVuSans-35" x="63.623047"/>
       <use xlink:href="#DejaVuSans-30" x="127.246094"/>
       <use xlink:href="#DejaVuSans-30" x="190.869141"/>
      </g>
     </g>
    </g>
   </g>
   <g id="line2d_37">
    <path d="M 92.290909 369.235504 
L 95.231621 369.235504 
L 98.172332 369.111009 
L 101.113043 369.36 
L 104.053755 369.36 
L 106.994466 369.111009 
L 112.875889 369.36 
L 115.816601 369.36 
L 118.757312 369.235504 
L 121.698024 369.235504 
L 124.638735 369.36 
L 127.579447 369.235504 
L 130.520158 369.36 
L 133.46087 369.235504 
L 136.401581 369.36 
L 139.342292 369.235504 
L 142.283004 369.36 
L 145.223715 369.36 
L 148.164427 368.613026 
L 151.105138 369.235504 
L 154.04585 368.986513 
L 156.986561 369.235504 
L 159.927273 368.986513 
L 162.867984 368.986513 
L 165.808696 368.48853 
L 168.749407 368.364035 
L 171.690119 368.613026 
L 174.63083 368.613026 
L 177.571542 368.737522 
L 180.512253 367.243573 
L 183.452964 367.119078 
L 186.393676 365.998617 
L 189.334387 366.123112 
L 192.275099 367.866052 
L 209.919368 367.866052 
L 212.860079 365.251643 
L 215.800791 352.179597 
L 218.741502 344.958847 
L 221.682213 344.709856 
L 224.622925 336.866628 
L 227.563636 332.384784 
L 230.504348 334.003228 
L 233.445059 324.417061 
L 236.385771 328.400922 
L 239.326482 322.923112 
L 242.267194 325.164035 
L 245.207905 322.42513 
L 248.148617 320.308703 
L 251.089328 316.573833 
L 254.03004 309.726571 
L 256.970751 307.361153 
L 259.911462 302.630317 
L 262.852174 309.975562 
L 265.792885 315.702363 
L 268.733597 310.224553 
L 271.674308 330.019366 
L 274.61502 325.537522 
L 277.555731 323.421095 
L 280.496443 318.192277 
L 283.437154 315.826859 
L 286.377866 308.855101 
L 289.318577 304.248761 
L 292.259289 295.783055 
L 295.2 298.023977 
L 298.140711 292.17268 
L 301.081423 287.815331 
L 304.022134 290.180749 
L 306.962846 287.939827 
L 309.903557 286.570375 
L 312.844269 289.060288 
L 318.725692 282.586513 
L 321.666403 268.145014 
L 324.607115 273.622824 
L 327.547826 266.153084 
L 330.488538 254.823977 
L 333.429249 246.607262 
L 336.36996 247.603228 
L 339.310672 245.860288 
L 342.251383 239.137522 
L 345.192095 233.41072 
L 348.132806 230.920807 
L 351.073518 220.712161 
L 354.014229 218.346744 
L 356.954941 214.362882 
L 359.895652 208.262594 
L 362.836364 200.419366 
L 365.777075 194.443573 
L 368.717787 185.355389 
L 371.658498 178.010144 
L 374.599209 179.877579 
L 377.539921 176.018213 
L 380.480632 168.92196 
L 383.421344 166.556542 
L 386.362055 164.689107 
L 389.302767 163.568646 
L 392.243478 153.608991 
L 395.18419 149.62513 
L 398.124901 159.460288 
L 401.065613 157.592853 
L 404.006324 152.613026 
L 406.947036 149.62513 
L 409.887747 145.392277 
L 412.828458 140.910432 
L 415.76917 137.175562 
L 418.709881 127.464899 
L 421.650593 129.083343 
L 424.591304 124.974986 
L 427.532016 124.477003 
L 430.472727 121.364611 
L 433.413439 114.890836 
L 436.35415 104.557695 
L 439.294862 102.814755 
L 442.235573 107.421095 
L 445.176285 109.28853 
L 448.116996 106.176138 
L 451.057708 101.196311 
L 453.998419 97.834928 
L 456.93913 95.967493 
L 459.879842 93.726571 
L 462.820553 82.272968 
L 465.761265 75.052219 
L 468.701976 71.192853 
L 471.642688 66.96 
L 474.583399 73.433775 
L 477.524111 76.421671 
L 498.109091 76.421671 
L 498.109091 76.421671 
" clip-path="url(#p8fe7c977de)" style="fill: none; stroke: #1f77b4; stroke-width: 1.5; stroke-linecap: square"/>
    <defs>
     <path id="m35a4982ab7" d="M 0 1.5 
C 0.397805 1.5 0.77937 1.341951 1.06066 1.06066 
C 1.341951 0.77937 1.5 0.397805 1.5 0 
C 1.5 -0.397805 1.341951 -0.77937 1.06066 -1.06066 
C 0.77937 -1.341951 0.397805 -1.5 0 -1.5 
C -0.397805 -1.5 -0.77937 -1.341951 -1.06066 -1.06066 
C -1.341951 -0.77937 -1.5 -0.397805 -1.5 0 
C -1.5 0.397805 -1.341951 0.77937 -1.06066 1.06066 
C -0.77937 1.341951 -0.397805 1.5 0 1.5 
z
" style="stroke: #1f77b4"/>
    </defs>
    <g clip-path="url(#p8fe7c977de)">
     <use xlink:href="#m35a4982ab7" x="92.290909" y="369.235504" style="fill: #1f77b4; stroke: #1f77b4"/>
     <use xlink:href="#m35a4982ab7" x="95.231621" y="369.235504" style="fill: #1f77b4; stroke: #1f77b4"/>
     <use xlink:href="#m35a4982ab7" x="98.172332" y="369.111009" style="fill: #1f77b4; stroke: #1f77b4"/>
     <use xlink:href="#m35a4982ab7" x="101.113043" y="369.36" style="fill: #1f77b4; stroke: #1f77b4"/>
     <use xlink:href="#m35a4982ab7" x="104.053755" y="369.36" style="fill: #1f77b4; stroke: #1f77b4"/>
     <use xlink:href="#m35a4982ab7" x="106.994466" y="369.111009" style="fill: #1f77b4; stroke: #1f77b4"/>
     <use xlink:href="#m35a4982ab7" x="109.935178" y="369.235504" style="fill: #1f77b4; stroke: #1f77b4"/>
     <use xlink:href="#m35a4982ab7" x="112.875889" y="369.36" style="fill: #1f77b4; stroke: #1f77b4"/>
     <use xlink:href="#m35a4982ab7" x="115.816601" y="369.36" style="fill: #1f77b4; stroke: #1f77b4"/>
     <use xlink:href="#m35a4982ab7" x="118.757312" y="369.235504" style="fill: #1f77b4; stroke: #1f77b4"/>
     <use xlink:href="#m35a4982ab7" x="121.698024" y="369.235504" style="fill: #1f77b4; stroke: #1f77b4"/>
     <use xlink:href="#m35a4982ab7" x="124.638735" y="369.36" style="fill: #1f77b4; stroke: #1f77b4"/>
     <use xlink:href="#m35a4982ab7" x="127.579447" y="369.235504" style="fill: #1f77b4; stroke: #1f77b4"/>
     <use xlink:href="#m35a4982ab7" x="130.520158" y="369.36" style="fill: #1f77b4; stroke: #1f77b4"/>
     <use xlink:href="#m35a4982ab7" x="133.46087" y="369.235504" style="fill: #1f77b4; stroke: #1f77b4"/>
     <use xlink:href="#m35a4982ab7" x="136.401581" y="369.36" style="fill: #1f77b4; stroke: #1f77b4"/>
     <use xlink:href="#m35a4982ab7" x="139.342292" y="369.235504" style="fill: #1f77b4; stroke: #1f77b4"/>
     <use xlink:href="#m35a4982ab7" x="142.283004" y="369.36" style="fill: #1f77b4; stroke: #1f77b4"/>
     <use xlink:href="#m35a4982ab7" x="145.223715" y="369.36" style="fill: #1f77b4; stroke: #1f77b4"/>
     <use xlink:href="#m35a4982ab7" x="148.164427" y="368.613026" style="fill: #1f77b4; stroke: #1f77b4"/>
     <use xlink:href="#m35a4982ab7" x="151.105138" y="369.235504" style="fill: #1f77b4; stroke: #1f77b4"/>
     <use xlink:href="#m35a4982ab7" x="154.04585" y="368.986513" style="fill: #1f77b4; stroke: #1f77b4"/>
     <use xlink:href="#m35a4982ab7" x="156.986561" y="369.235504" style="fill: #1f77b4; stroke: #1f77b4"/>
     <use xlink:href="#m35a4982ab7" x="159.927273" y="368.986513" style="fill: #1f77b4; stroke: #1f77b4"/>
     <use xlink:href="#m35a4982ab7" x="162.867984" y="368.986513" style="fill: #1f77b4; stroke: #1f77b4"/>
     <use xlink:href="#m35a4982ab7" x="165.808696" y="368.48853" style="fill: #1f77b4; stroke: #1f77b4"/>
     <use xlink:href="#m35a4982ab7" x="168.749407" y="368.364035" style="fill: #1f77b4; stroke: #1f77b4"/>
     <use xlink:href="#m35a4982ab7" x="171.690119" y="368.613026" style="fill: #1f77b4; stroke: #1f77b4"/>
     <use xlink:href="#m35a4982ab7" x="174.63083" y="368.613026" style="fill: #1f77b4; stroke: #1f77b4"/>
     <use xlink:href="#m35a4982ab7" x="177.571542" y="368.737522" style="fill: #1f77b4; stroke: #1f77b4"/>
     <use xlink:href="#m35a4982ab7" x="180.512253" y="367.243573" style="fill: #1f77b4; stroke: #1f77b4"/>
     <use xlink:href="#m35a4982ab7" x="183.452964" y="367.119078" style="fill: #1f77b4; stroke: #1f77b4"/>
     <use xlink:href="#m35a4982ab7" x="186.393676" y="365.998617" style="fill: #1f77b4; stroke: #1f77b4"/>
     <use xlink:href="#m35a4982ab7" x="189.334387" y="366.123112" style="fill: #1f77b4; stroke: #1f77b4"/>
     <use xlink:href="#m35a4982ab7" x="192.275099" y="367.866052" style="fill: #1f77b4; stroke: #1f77b4"/>
     <use xlink:href="#m35a4982ab7" x="195.21581" y="367.866052" style="fill: #1f77b4; stroke: #1f77b4"/>
     <use xlink:href="#m35a4982ab7" x="198.156522" y="367.866052" style="fill: #1f77b4; stroke: #1f77b4"/>
     <use xlink:href="#m35a4982ab7" x="201.097233" y="367.866052" style="fill: #1f77b4; stroke: #1f77b4"/>
     <use xlink:href="#m35a4982ab7" x="204.037945" y="367.866052" style="fill: #1f77b4; stroke: #1f77b4"/>
     <use xlink:href="#m35a4982ab7" x="206.978656" y="367.866052" style="fill: #1f77b4; stroke: #1f77b4"/>
     <use xlink:href="#m35a4982ab7" x="209.919368" y="367.866052" style="fill: #1f77b4; stroke: #1f77b4"/>
     <use xlink:href="#m35a4982ab7" x="212.860079" y="365.251643" style="fill: #1f77b4; stroke: #1f77b4"/>
     <use xlink:href="#m35a4982ab7" x="215.800791" y="352.179597" style="fill: #1f77b4; stroke: #1f77b4"/>
     <use xlink:href="#m35a4982ab7" x="218.741502" y="344.958847" style="fill: #1f77b4; stroke: #1f77b4"/>
     <use xlink:href="#m35a4982ab7" x="221.682213" y="344.709856" style="fill: #1f77b4; stroke: #1f77b4"/>
     <use xlink:href="#m35a4982ab7" x="224.622925" y="336.866628" style="fill: #1f77b4; stroke: #1f77b4"/>
     <use xlink:href="#m35a4982ab7" x="227.563636" y="332.384784" style="fill: #1f77b4; stroke: #1f77b4"/>
     <use xlink:href="#m35a4982ab7" x="230.504348" y="334.003228" style="fill: #1f77b4; stroke: #1f77b4"/>
     <use xlink:href="#m35a4982ab7" x="233.445059" y="324.417061" style="fill: #1f77b4; stroke: #1f77b4"/>
     <use xlink:href="#m35a4982ab7" x="236.385771" y="328.400922" style="fill: #1f77b4; stroke: #1f77b4"/>
     <use xlink:href="#m35a4982ab7" x="239.326482" y="322.923112" style="fill: #1f77b4; stroke: #1f77b4"/>
     <use xlink:href="#m35a4982ab7" x="242.267194" y="325.164035" style="fill: #1f77b4; stroke: #1f77b4"/>
     <use xlink:href="#m35a4982ab7" x="245.207905" y="322.42513" style="fill: #1f77b4; stroke: #1f77b4"/>
     <use xlink:href="#m35a4982ab7" x="248.148617" y="320.308703" style="fill: #1f77b4; stroke: #1f77b4"/>
     <use xlink:href="#m35a4982ab7" x="251.089328" y="316.573833" style="fill: #1f77b4; stroke: #1f77b4"/>
     <use xlink:href="#m35a4982ab7" x="254.03004" y="309.726571" style="fill: #1f77b4; stroke: #1f77b4"/>
     <use xlink:href="#m35a4982ab7" x="256.970751" y="307.361153" style="fill: #1f77b4; stroke: #1f77b4"/>
     <use xlink:href="#m35a4982ab7" x="259.911462" y="302.630317" style="fill: #1f77b4; stroke: #1f77b4"/>
     <use xlink:href="#m35a4982ab7" x="262.852174" y="309.975562" style="fill: #1f77b4; stroke: #1f77b4"/>
     <use xlink:href="#m35a4982ab7" x="265.792885" y="315.702363" style="fill: #1f77b4; stroke: #1f77b4"/>
     <use xlink:href="#m35a4982ab7" x="268.733597" y="310.224553" style="fill: #1f77b4; stroke: #1f77b4"/>
     <use xlink:href="#m35a4982ab7" x="271.674308" y="330.019366" style="fill: #1f77b4; stroke: #1f77b4"/>
     <use xlink:href="#m35a4982ab7" x="274.61502" y="325.537522" style="fill: #1f77b4; stroke: #1f77b4"/>
     <use xlink:href="#m35a4982ab7" x="277.555731" y="323.421095" style="fill: #1f77b4; stroke: #1f77b4"/>
     <use xlink:href="#m35a4982ab7" x="280.496443" y="318.192277" style="fill: #1f77b4; stroke: #1f77b4"/>
     <use xlink:href="#m35a4982ab7" x="283.437154" y="315.826859" style="fill: #1f77b4; stroke: #1f77b4"/>
     <use xlink:href="#m35a4982ab7" x="286.377866" y="308.855101" style="fill: #1f77b4; stroke: #1f77b4"/>
     <use xlink:href="#m35a4982ab7" x="289.318577" y="304.248761" style="fill: #1f77b4; stroke: #1f77b4"/>
     <use xlink:href="#m35a4982ab7" x="292.259289" y="295.783055" style="fill: #1f77b4; stroke: #1f77b4"/>
     <use xlink:href="#m35a4982ab7" x="295.2" y="298.023977" style="fill: #1f77b4; stroke: #1f77b4"/>
     <use xlink:href="#m35a4982ab7" x="298.140711" y="292.17268" style="fill: #1f77b4; stroke: #1f77b4"/>
     <use xlink:href="#m35a4982ab7" x="301.081423" y="287.815331" style="fill: #1f77b4; stroke: #1f77b4"/>
     <use xlink:href="#m35a4982ab7" x="304.022134" y="290.180749" style="fill: #1f77b4; stroke: #1f77b4"/>
     <use xlink:href="#m35a4982ab7" x="306.962846" y="287.939827" style="fill: #1f77b4; stroke: #1f77b4"/>
     <use xlink:href="#m35a4982ab7" x="309.903557" y="286.570375" style="fill: #1f77b4; stroke: #1f77b4"/>
     <use xlink:href="#m35a4982ab7" x="312.844269" y="289.060288" style="fill: #1f77b4; stroke: #1f77b4"/>
     <use xlink:href="#m35a4982ab7" x="315.78498" y="285.823401" style="fill: #1f77b4; stroke: #1f77b4"/>
     <use xlink:href="#m35a4982ab7" x="318.725692" y="282.586513" style="fill: #1f77b4; stroke: #1f77b4"/>
     <use xlink:href="#m35a4982ab7" x="321.666403" y="268.145014" style="fill: #1f77b4; stroke: #1f77b4"/>
     <use xlink:href="#m35a4982ab7" x="324.607115" y="273.622824" style="fill: #1f77b4; stroke: #1f77b4"/>
     <use xlink:href="#m35a4982ab7" x="327.547826" y="266.153084" style="fill: #1f77b4; stroke: #1f77b4"/>
     <use xlink:href="#m35a4982ab7" x="330.488538" y="254.823977" style="fill: #1f77b4; stroke: #1f77b4"/>
     <use xlink:href="#m35a4982ab7" x="333.429249" y="246.607262" style="fill: #1f77b4; stroke: #1f77b4"/>
     <use xlink:href="#m35a4982ab7" x="336.36996" y="247.603228" style="fill: #1f77b4; stroke: #1f77b4"/>
     <use xlink:href="#m35a4982ab7" x="339.310672" y="245.860288" style="fill: #1f77b4; stroke: #1f77b4"/>
     <use xlink:href="#m35a4982ab7" x="342.251383" y="239.137522" style="fill: #1f77b4; stroke: #1f77b4"/>
     <use xlink:href="#m35a4982ab7" x="345.192095" y="233.41072" style="fill: #1f77b4; stroke: #1f77b4"/>
     <use xlink:href="#m35a4982ab7" x="348.132806" y="230.920807" style="fill: #1f77b4; stroke: #1f77b4"/>
     <use xlink:href="#m35a4982ab7" x="351.073518" y="220.712161" style="fill: #1f77b4; stroke: #1f77b4"/>
     <use xlink:href="#m35a4982ab7" x="354.014229" y="218.346744" style="fill: #1f77b4; stroke: #1f77b4"/>
     <use xlink:href="#m35a4982ab7" x="356.954941" y="214.362882" style="fill: #1f77b4; stroke: #1f77b4"/>
     <use xlink:href="#m35a4982ab7" x="359.895652" y="208.262594" style="fill: #1f77b4; stroke: #1f77b4"/>
     <use xlink:href="#m35a4982ab7" x="362.836364" y="200.419366" style="fill: #1f77b4; stroke: #1f77b4"/>
     <use xlink:href="#m35a4982ab7" x="365.777075" y="194.443573" style="fill: #1f77b4; stroke: #1f77b4"/>
     <use xlink:href="#m35a4982ab7" x="368.717787" y="185.355389" style="fill: #1f77b4; stroke: #1f77b4"/>
     <use xlink:href="#m35a4982ab7" x="371.658498" y="178.010144" style="fill: #1f77b4; stroke: #1f77b4"/>
     <use xlink:href="#m35a4982ab7" x="374.599209" y="179.877579" style="fill: #1f77b4; stroke: #1f77b4"/>
     <use xlink:href="#m35a4982ab7" x="377.539921" y="176.018213" style="fill: #1f77b4; stroke: #1f77b4"/>
     <use xlink:href="#m35a4982ab7" x="380.480632" y="168.92196" style="fill: #1f77b4; stroke: #1f77b4"/>
     <use xlink:href="#m35a4982ab7" x="383.421344" y="166.556542" style="fill: #1f77b4; stroke: #1f77b4"/>
     <use xlink:href="#m35a4982ab7" x="386.362055" y="164.689107" style="fill: #1f77b4; stroke: #1f77b4"/>
     <use xlink:href="#m35a4982ab7" x="389.302767" y="163.568646" style="fill: #1f77b4; stroke: #1f77b4"/>
     <use xlink:href="#m35a4982ab7" x="392.243478" y="153.608991" style="fill: #1f77b4; stroke: #1f77b4"/>
     <use xlink:href="#m35a4982ab7" x="395.18419" y="149.62513" style="fill: #1f77b4; stroke: #1f77b4"/>
     <use xlink:href="#m35a4982ab7" x="398.124901" y="159.460288" style="fill: #1f77b4; stroke: #1f77b4"/>
     <use xlink:href="#m35a4982ab7" x="401.065613" y="157.592853" style="fill: #1f77b4; stroke: #1f77b4"/>
     <use xlink:href="#m35a4982ab7" x="404.006324" y="152.613026" style="fill: #1f77b4; stroke: #1f77b4"/>
     <use xlink:href="#m35a4982ab7" x="406.947036" y="149.62513" style="fill: #1f77b4; stroke: #1f77b4"/>
     <use xlink:href="#m35a4982ab7" x="409.887747" y="145.392277" style="fill: #1f77b4; stroke: #1f77b4"/>
     <use xlink:href="#m35a4982ab7" x="412.828458" y="140.910432" style="fill: #1f77b4; stroke: #1f77b4"/>
     <use xlink:href="#m35a4982ab7" x="415.76917" y="137.175562" style="fill: #1f77b4; stroke: #1f77b4"/>
     <use xlink:href="#m35a4982ab7" x="418.709881" y="127.464899" style="fill: #1f77b4; stroke: #1f77b4"/>
     <use xlink:href="#m35a4982ab7" x="421.650593" y="129.083343" style="fill: #1f77b4; stroke: #1f77b4"/>
     <use xlink:href="#m35a4982ab7" x="424.591304" y="124.974986" style="fill: #1f77b4; stroke: #1f77b4"/>
     <use xlink:href="#m35a4982ab7" x="427.532016" y="124.477003" style="fill: #1f77b4; stroke: #1f77b4"/>
     <use xlink:href="#m35a4982ab7" x="430.472727" y="121.364611" style="fill: #1f77b4; stroke: #1f77b4"/>
     <use xlink:href="#m35a4982ab7" x="433.413439" y="114.890836" style="fill: #1f77b4; stroke: #1f77b4"/>
     <use xlink:href="#m35a4982ab7" x="436.35415" y="104.557695" style="fill: #1f77b4; stroke: #1f77b4"/>
     <use xlink:href="#m35a4982ab7" x="439.294862" y="102.814755" style="fill: #1f77b4; stroke: #1f77b4"/>
     <use xlink:href="#m35a4982ab7" x="442.235573" y="107.421095" style="fill: #1f77b4; stroke: #1f77b4"/>
     <use xlink:href="#m35a4982ab7" x="445.176285" y="109.28853" style="fill: #1f77b4; stroke: #1f77b4"/>
     <use xlink:href="#m35a4982ab7" x="448.116996" y="106.176138" style="fill: #1f77b4; stroke: #1f77b4"/>
     <use xlink:href="#m35a4982ab7" x="451.057708" y="101.196311" style="fill: #1f77b4; stroke: #1f77b4"/>
     <use xlink:href="#m35a4982ab7" x="453.998419" y="97.834928" style="fill: #1f77b4; stroke: #1f77b4"/>
     <use xlink:href="#m35a4982ab7" x="456.93913" y="95.967493" style="fill: #1f77b4; stroke: #1f77b4"/>
     <use xlink:href="#m35a4982ab7" x="459.879842" y="93.726571" style="fill: #1f77b4; stroke: #1f77b4"/>
     <use xlink:href="#m35a4982ab7" x="462.820553" y="82.272968" style="fill: #1f77b4; stroke: #1f77b4"/>
     <use xlink:href="#m35a4982ab7" x="465.761265" y="75.052219" style="fill: #1f77b4; stroke: #1f77b4"/>
     <use xlink:href="#m35a4982ab7" x="468.701976" y="71.192853" style="fill: #1f77b4; stroke: #1f77b4"/>
     <use xlink:href="#m35a4982ab7" x="471.642688" y="66.96" style="fill: #1f77b4; stroke: #1f77b4"/>
     <use xlink:href="#m35a4982ab7" x="474.583399" y="73.433775" style="fill: #1f77b4; stroke: #1f77b4"/>
     <use xlink:href="#m35a4982ab7" x="477.524111" y="76.421671" style="fill: #1f77b4; stroke: #1f77b4"/>
     <use xlink:href="#m35a4982ab7" x="480.464822" y="76.421671" style="fill: #1f77b4; stroke: #1f77b4"/>
     <use xlink:href="#m35a4982ab7" x="483.405534" y="76.421671" style="fill: #1f77b4; stroke: #1f77b4"/>
     <use xlink:href="#m35a4982ab7" x="486.346245" y="76.421671" style="fill: #1f77b4; stroke: #1f77b4"/>
     <use xlink:href="#m35a4982ab7" x="489.286957" y="76.421671" style="fill: #1f77b4; stroke: #1f77b4"/>
     <use xlink:href="#m35a4982ab7" x="492.227668" y="76.421671" style="fill: #1f77b4; stroke: #1f77b4"/>
     <use xlink:href="#m35a4982ab7" x="495.168379" y="76.421671" style="fill: #1f77b4; stroke: #1f77b4"/>
     <use xlink:href="#m35a4982ab7" x="498.109091" y="76.421671" style="fill: #1f77b4; stroke: #1f77b4"/>
    </g>
   </g>
   <g id="patch_3">
    <path d="M 72 384.48 
L 72 51.84 
" style="fill: none; stroke: #000000; stroke-width: 0.8; stroke-linejoin: miter; stroke-linecap: square"/>
   </g>
   <g id="patch_4">
    <path d="M 518.4 384.48 
L 518.4 51.84 
" style="fill: none; stroke: #000000; stroke-width: 0.8; stroke-linejoin: miter; stroke-linecap: square"/>
   </g>
   <g id="patch_5">
    <path d="M 72 384.48 
L 518.4 384.48 
" style="fill: none; stroke: #000000; stroke-width: 0.8; stroke-linejoin: miter; stroke-linecap: square"/>
   </g>
   <g id="patch_6">
    <path d="M 72 51.84 
L 518.4 51.84 
" style="fill: none; stroke: #000000; stroke-width: 0.8; stroke-linejoin: miter; stroke-linecap: square"/>
   </g>
   <g id="text_20">
    <!-- N-RIS -->
    <g transform="translate(278.798437 45.84) scale(0.12 -0.12)">
     <defs>
      <path id="DejaVuSans-4e" d="M 628 4666 
L 1478 4666 
L 3547 763 
L 3547 4666 
L 4159 4666 
L 4159 0 
L 3309 0 
L 1241 3903 
L 1241 0 
L 628 0 
L 628 4666 
z
" transform="scale(0.015625)"/>
      <path id="DejaVuSans-2d" d="M 313 2009 
L 1997 2009 
L 1997 1497 
L 313 1497 
L 313 2009 
z
" transform="scale(0.015625)"/>
      <path id="DejaVuSans-52" d="M 2841 2188 
Q 3044 2119 3236 1894 
Q 3428 1669 3622 1275 
L 4263 0 
L 3584 0 
L 2988 1197 
Q 2756 1666 2539 1819 
Q 2322 1972 1947 1972 
L 1259 1972 
L 1259 0 
L 628 0 
L 628 4666 
L 2053 4666 
Q 2853 4666 3247 4331 
Q 3641 3997 3641 3322 
Q 3641 2881 3436 2590 
Q 3231 2300 2841 2188 
z
M 1259 4147 
L 1259 2491 
L 2053 2491 
Q 2509 2491 2742 2702 
Q 2975 2913 2975 3322 
Q 2975 3731 2742 3939 
Q 2509 4147 2053 4147 
L 1259 4147 
z
" transform="scale(0.015625)"/>
      <path id="DejaVuSans-49" d="M 628 4666 
L 1259 4666 
L 1259 0 
L 628 0 
L 628 4666 
z
" transform="scale(0.015625)"/>
      <path id="DejaVuSans-53" d="M 3425 4513 
L 3425 3897 
Q 3066 4069 2747 4153 
Q 2428 4238 2131 4238 
Q 1616 4238 1336 4038 
Q 1056 3838 1056 3469 
Q 1056 3159 1242 3001 
Q 1428 2844 1947 2747 
L 2328 2669 
Q 3034 2534 3370 2195 
Q 3706 1856 3706 1288 
Q 3706 609 3251 259 
Q 2797 -91 1919 -91 
Q 1588 -91 1214 -16 
Q 841 59 441 206 
L 441 856 
Q 825 641 1194 531 
Q 1563 422 1919 422 
Q 2459 422 2753 634 
Q 3047 847 3047 1241 
Q 3047 1584 2836 1778 
Q 2625 1972 2144 2069 
L 1759 2144 
Q 1053 2284 737 2584 
Q 422 2884 422 3419 
Q 422 4038 858 4394 
Q 1294 4750 2059 4750 
Q 2388 4750 2728 4690 
Q 3069 4631 3425 4513 
z
" transform="scale(0.015625)"/>
     </defs>
     <use xlink:href="#DejaVuSans-4e"/>
     <use xlink:href="#DejaVuSans-2d" x="74.804688"/>
     <use xlink:href="#DejaVuSans-52" x="110.888672"/>
     <use xlink:href="#DejaVuSans-49" x="180.371094"/>
     <use xlink:href="#DejaVuSans-53" x="209.863281"/>
    </g>
   </g>
   <g id="legend_1">
    <g id="patch_7">
     <path d="M 79 74.518125 
L 212.959375 74.518125 
Q 214.959375 74.518125 214.959375 72.518125 
L 214.959375 58.84 
Q 214.959375 56.84 212.959375 56.84 
L 79 56.84 
Q 77 56.84 77 58.84 
L 77 72.518125 
Q 77 74.518125 79 74.518125 
z
" style="fill: #ffffff; opacity: 0.8; stroke: #cccccc; stroke-linejoin: miter"/>
    </g>
    <g id="line2d_38">
     <path d="M 81 64.938438 
L 91 64.938438 
L 101 64.938438 
" style="fill: none; stroke: #1f77b4; stroke-width: 1.5; stroke-linecap: square"/>
     <g>
      <use xlink:href="#m35a4982ab7" x="91" y="64.938438" style="fill: #1f77b4; stroke: #1f77b4"/>
     </g>
    </g>
    <g id="text_21">
     <!-- osmandapp/osmand -->
     <g transform="translate(109 68.438438) scale(0.1 -0.1)">
      <defs>
       <path id="DejaVuSans-6f" d="M 1959 3097 
Q 1497 3097 1228 2736 
Q 959 2375 959 1747 
Q 959 1119 1226 758 
Q 1494 397 1959 397 
Q 2419 397 2687 759 
Q 2956 1122 2956 1747 
Q 2956 2369 2687 2733 
Q 2419 3097 1959 3097 
z
M 1959 3584 
Q 2709 3584 3137 3096 
Q 3566 2609 3566 1747 
Q 3566 888 3137 398 
Q 2709 -91 1959 -91 
Q 1206 -91 779 398 
Q 353 888 353 1747 
Q 353 2609 779 3096 
Q 1206 3584 1959 3584 
z
" transform="scale(0.015625)"/>
       <path id="DejaVuSans-73" d="M 2834 3397 
L 2834 2853 
Q 2591 2978 2328 3040 
Q 2066 3103 1784 3103 
Q 1356 3103 1142 2972 
Q 928 2841 928 2578 
Q 928 2378 1081 2264 
Q 1234 2150 1697 2047 
L 1894 2003 
Q 2506 1872 2764 1633 
Q 3022 1394 3022 966 
Q 3022 478 2636 193 
Q 2250 -91 1575 -91 
Q 1294 -91 989 -36 
Q 684 19 347 128 
L 347 722 
Q 666 556 975 473 
Q 1284 391 1588 391 
Q 1994 391 2212 530 
Q 2431 669 2431 922 
Q 2431 1156 2273 1281 
Q 2116 1406 1581 1522 
L 1381 1569 
Q 847 1681 609 1914 
Q 372 2147 372 2553 
Q 372 3047 722 3315 
Q 1072 3584 1716 3584 
Q 2034 3584 2315 3537 
Q 2597 3491 2834 3397 
z
" transform="scale(0.015625)"/>
       <path id="DejaVuSans-6d" d="M 3328 2828 
Q 3544 3216 3844 3400 
Q 4144 3584 4550 3584 
Q 5097 3584 5394 3201 
Q 5691 2819 5691 2113 
L 5691 0 
L 5113 0 
L 5113 2094 
Q 5113 2597 4934 2840 
Q 4756 3084 4391 3084 
Q 3944 3084 3684 2787 
Q 3425 2491 3425 1978 
L 3425 0 
L 2847 0 
L 2847 2094 
Q 2847 2600 2669 2842 
Q 2491 3084 2119 3084 
Q 1678 3084 1418 2786 
Q 1159 2488 1159 1978 
L 1159 0 
L 581 0 
L 581 3500 
L 1159 3500 
L 1159 2956 
Q 1356 3278 1631 3431 
Q 1906 3584 2284 3584 
Q 2666 3584 2933 3390 
Q 3200 3197 3328 2828 
z
" transform="scale(0.015625)"/>
       <path id="DejaVuSans-6e" d="M 3513 2113 
L 3513 0 
L 2938 0 
L 2938 2094 
Q 2938 2591 2744 2837 
Q 2550 3084 2163 3084 
Q 1697 3084 1428 2787 
Q 1159 2491 1159 1978 
L 1159 0 
L 581 0 
L 581 3500 
L 1159 3500 
L 1159 2956 
Q 1366 3272 1645 3428 
Q 1925 3584 2291 3584 
Q 2894 3584 3203 3211 
Q 3513 2838 3513 2113 
z
" transform="scale(0.015625)"/>
       <path id="DejaVuSans-70" d="M 1159 525 
L 1159 -1331 
L 581 -1331 
L 581 3500 
L 1159 3500 
L 1159 2969 
Q 1341 3281 1617 3432 
Q 1894 3584 2278 3584 
Q 2916 3584 3314 3078 
Q 3713 2572 3713 1747 
Q 3713 922 3314 415 
Q 2916 -91 2278 -91 
Q 1894 -91 1617 61 
Q 1341 213 1159 525 
z
M 3116 1747 
Q 3116 2381 2855 2742 
Q 2594 3103 2138 3103 
Q 1681 3103 1420 2742 
Q 1159 2381 1159 1747 
Q 1159 1113 1420 752 
Q 1681 391 2138 391 
Q 2594 391 2855 752 
Q 3116 1113 3116 1747 
z
" transform="scale(0.015625)"/>
       <path id="DejaVuSans-2f" d="M 1625 4666 
L 2156 4666 
L 531 -594 
L 0 -594 
L 1625 4666 
z
" transform="scale(0.015625)"/>
      </defs>
      <use xlink:href="#DejaVuSans-6f"/>
      <use xlink:href="#DejaVuSans-73" x="61.181641"/>
      <use xlink:href="#DejaVuSans-6d" x="113.28125"/>
      <use xlink:href="#DejaVuSans-61" x="210.693359"/>
      <use xlink:href="#DejaVuSans-6e" x="271.972656"/>
      <use xlink:href="#DejaVuSans-64" x="335.351562"/>
      <use xlink:href="#DejaVuSans-61" x="398.828125"/>
      <use xlink:href="#DejaVuSans-70" x="460.107422"/>
      <use xlink:href="#DejaVuSans-70" x="523.583984"/>
      <use xlink:href="#DejaVuSans-2f" x="587.060547"/>
      <use xlink:href="#DejaVuSans-6f" x="620.751953"/>
      <use xlink:href="#DejaVuSans-73" x="681.933594"/>
      <use xlink:href="#DejaVuSans-6d" x="734.033203"/>
      <use xlink:href="#DejaVuSans-61" x="831.445312"/>
      <use xlink:href="#DejaVuSans-6e" x="892.724609"/>
      <use xlink:href="#DejaVuSans-64" x="956.103516"/>
     </g>
    </g>
   </g>
  </g>
 </g>
 <defs>
  <clipPath id="p8fe7c977de">
   <rect x="72" y="51.84" width="446.4" height="332.64"/>
  </clipPath>
 </defs>
</svg>
